<mxfile host="Electron" modified="2023-11-13T21:13:43.666Z" agent="Mozilla/5.0 (Windows NT 10.0; Win64; x64) AppleWebKit/537.36 (KHTML, like Gecko) draw.io/22.0.2 Chrome/114.0.5735.289 Electron/25.8.4 Safari/537.36" etag="GBHoKbQiHZB8IBmPC0lH" version="22.0.2" type="device">
  <diagram name="Page-1" id="YGMDVthldDvwtLBjKC7v">
    <mxGraphModel dx="1102" dy="811" grid="1" gridSize="10" guides="1" tooltips="1" connect="1" arrows="1" fold="1" page="1" pageScale="1" pageWidth="1100" pageHeight="850" math="0" shadow="0">
      <root>
        <mxCell id="0" />
        <mxCell id="1" parent="0" />
        <mxCell id="0XPeNsJsJuI64TzQy2oE-1" value="" style="edgeStyle=orthogonalEdgeStyle;rounded=0;orthogonalLoop=1;jettySize=auto;html=1;" edge="1" parent="1" source="0XPeNsJsJuI64TzQy2oE-2" target="0XPeNsJsJuI64TzQy2oE-4">
          <mxGeometry relative="1" as="geometry" />
        </mxCell>
        <mxCell id="0XPeNsJsJuI64TzQy2oE-2" value="&lt;p style=&quot;line-height: 90%;&quot;&gt;&lt;font style=&quot;font-size: 10px;&quot;&gt;Start&lt;/font&gt;&lt;/p&gt;" style="ellipse;whiteSpace=wrap;html=1;aspect=fixed;" vertex="1" parent="1">
          <mxGeometry x="80" y="120" width="40" height="40" as="geometry" />
        </mxCell>
        <mxCell id="0XPeNsJsJuI64TzQy2oE-3" value="" style="edgeStyle=orthogonalEdgeStyle;rounded=0;orthogonalLoop=1;jettySize=auto;html=1;" edge="1" parent="1" source="0XPeNsJsJuI64TzQy2oE-4" target="0XPeNsJsJuI64TzQy2oE-6">
          <mxGeometry relative="1" as="geometry" />
        </mxCell>
        <mxCell id="0XPeNsJsJuI64TzQy2oE-4" value="&lt;font style=&quot;font-size: 10px;&quot;&gt;Select Nav Menu&lt;/font&gt;" style="rounded=1;whiteSpace=wrap;html=1;" vertex="1" parent="1">
          <mxGeometry x="200" y="120" width="120" height="40" as="geometry" />
        </mxCell>
        <mxCell id="0XPeNsJsJuI64TzQy2oE-5" value="" style="edgeStyle=orthogonalEdgeStyle;rounded=0;orthogonalLoop=1;jettySize=auto;html=1;" edge="1" parent="1" source="0XPeNsJsJuI64TzQy2oE-6" target="0XPeNsJsJuI64TzQy2oE-8">
          <mxGeometry relative="1" as="geometry" />
        </mxCell>
        <mxCell id="0XPeNsJsJuI64TzQy2oE-6" value="&lt;font style=&quot;font-size: 10px;&quot;&gt;Click Events&amp;nbsp;Link&lt;/font&gt;" style="rounded=1;whiteSpace=wrap;html=1;" vertex="1" parent="1">
          <mxGeometry x="200" y="240" width="120" height="40" as="geometry" />
        </mxCell>
        <mxCell id="0XPeNsJsJuI64TzQy2oE-7" value="" style="edgeStyle=orthogonalEdgeStyle;rounded=0;orthogonalLoop=1;jettySize=auto;html=1;" edge="1" parent="1" source="0XPeNsJsJuI64TzQy2oE-8" target="0XPeNsJsJuI64TzQy2oE-13">
          <mxGeometry relative="1" as="geometry" />
        </mxCell>
        <mxCell id="0XPeNsJsJuI64TzQy2oE-8" value="&lt;font style=&quot;font-size: 10px;&quot;&gt;Click Individual&lt;br&gt;Event Link&lt;/font&gt;" style="rounded=1;whiteSpace=wrap;html=1;" vertex="1" parent="1">
          <mxGeometry x="200" y="360" width="120" height="40" as="geometry" />
        </mxCell>
        <mxCell id="0XPeNsJsJuI64TzQy2oE-9" value="" style="edgeStyle=orthogonalEdgeStyle;rounded=0;orthogonalLoop=1;jettySize=auto;html=1;" edge="1" parent="1" source="0XPeNsJsJuI64TzQy2oE-13" target="0XPeNsJsJuI64TzQy2oE-23">
          <mxGeometry relative="1" as="geometry">
            <mxPoint x="260" y="640" as="targetPoint" />
          </mxGeometry>
        </mxCell>
        <mxCell id="0XPeNsJsJuI64TzQy2oE-10" value="No" style="edgeLabel;html=1;align=center;verticalAlign=middle;resizable=0;points=[];" vertex="1" connectable="0" parent="0XPeNsJsJuI64TzQy2oE-9">
          <mxGeometry x="-0.1667" y="1" relative="1" as="geometry">
            <mxPoint as="offset" />
          </mxGeometry>
        </mxCell>
        <mxCell id="0XPeNsJsJuI64TzQy2oE-11" value="" style="edgeStyle=orthogonalEdgeStyle;rounded=0;orthogonalLoop=1;jettySize=auto;html=1;" edge="1" parent="1" source="0XPeNsJsJuI64TzQy2oE-13" target="0XPeNsJsJuI64TzQy2oE-17">
          <mxGeometry relative="1" as="geometry" />
        </mxCell>
        <mxCell id="0XPeNsJsJuI64TzQy2oE-12" value="&amp;nbsp;Yes&amp;nbsp;" style="edgeLabel;html=1;align=center;verticalAlign=middle;resizable=0;points=[];" vertex="1" connectable="0" parent="0XPeNsJsJuI64TzQy2oE-11">
          <mxGeometry x="-0.3089" relative="1" as="geometry">
            <mxPoint x="5" as="offset" />
          </mxGeometry>
        </mxCell>
        <mxCell id="0XPeNsJsJuI64TzQy2oE-13" value="&lt;p style=&quot;line-height: 0%;&quot;&gt;&lt;span style=&quot;font-size: 10px;&quot;&gt;Has&lt;/span&gt;&lt;/p&gt;&lt;p style=&quot;line-height: 0%;&quot;&gt;&lt;span style=&quot;font-size: 10px;&quot;&gt;Location?&lt;/span&gt;&lt;/p&gt;" style="rhombus;whiteSpace=wrap;html=1;" vertex="1" parent="1">
          <mxGeometry x="220" y="480" width="80" height="80" as="geometry" />
        </mxCell>
        <mxCell id="0XPeNsJsJuI64TzQy2oE-25" value="" style="edgeStyle=orthogonalEdgeStyle;rounded=0;orthogonalLoop=1;jettySize=auto;html=1;" edge="1" parent="1" source="0XPeNsJsJuI64TzQy2oE-17" target="0XPeNsJsJuI64TzQy2oE-22">
          <mxGeometry relative="1" as="geometry" />
        </mxCell>
        <mxCell id="0XPeNsJsJuI64TzQy2oE-17" value="&lt;font style=&quot;font-size: 10px;&quot;&gt;Click Trash Button&lt;br&gt;next to Location&lt;/font&gt;" style="rounded=1;whiteSpace=wrap;html=1;" vertex="1" parent="1">
          <mxGeometry x="400" y="500" width="120" height="40" as="geometry" />
        </mxCell>
        <mxCell id="0XPeNsJsJuI64TzQy2oE-22" value="&lt;font style=&quot;font-size: 10px;&quot;&gt;Finish&lt;/font&gt;" style="ellipse;whiteSpace=wrap;html=1;aspect=fixed;fontSize=7;" vertex="1" parent="1">
          <mxGeometry x="630" y="500" width="40" height="40" as="geometry" />
        </mxCell>
        <mxCell id="0XPeNsJsJuI64TzQy2oE-23" value="&lt;font style=&quot;font-size: 10px;&quot;&gt;Finish&lt;/font&gt;" style="ellipse;whiteSpace=wrap;html=1;aspect=fixed;fontSize=7;" vertex="1" parent="1">
          <mxGeometry x="240" y="640" width="40" height="40" as="geometry" />
        </mxCell>
      </root>
    </mxGraphModel>
  </diagram>
</mxfile>
